<svg width="20" height="18" viewBox="0 0 20 18" fill="none" xmlns="http://www.w3.org/2000/svg">
<path d="M17.1167 2.84166C16.6911 2.41583 16.1857 2.07803 15.6295 1.84757C15.0733 1.6171 14.4771 1.49847 13.8751 1.49847C13.273 1.49847 12.6768 1.6171 12.1206 1.84757C11.5644 2.07803 11.059 2.41583 10.6334 2.84166L9.75006 3.725L8.86673 2.84166C8.00698 1.98192 6.84092 1.49892 5.62506 1.49892C4.4092 1.49892 3.24314 1.98192 2.38339 2.84166C1.52365 3.70141 1.04065 4.86747 1.04065 6.08333C1.04065 7.29919 1.52365 8.46525 2.38339 9.325L3.26672 10.2083L9.75006 16.6917L16.2334 10.2083L17.1167 9.325C17.5426 8.89937 17.8804 8.39401 18.1108 7.83779C18.3413 7.28158 18.4599 6.6854 18.4599 6.08333C18.4599 5.48126 18.3413 4.88508 18.1108 4.32887C17.8804 3.77265 17.5426 3.26729 17.1167 2.84166Z" stroke="#A4A4A4" stroke-width="2" stroke-linecap="round" stroke-linejoin="round"/>
</svg>
